<?xml version="1.0" encoding="UTF-8"?>
<svg id="Layer_1" xmlns="http://www.w3.org/2000/svg" viewBox="0 0 176.65 176.63">
  <path fill="#64e73c" d="M176.65,88.31c0-23.41-9.32-45.88-25.87-62.45C134.22,9.3,111.74,0,88.31,0S42.43,9.3,25.87,25.87C9.3,42.43,0,64.91,0,88.31s9.3,45.9,25.87,62.45c16.56,16.56,39.04,25.87,62.45,25.87,23.43-.02,45.86-9.32,62.43-25.89,16.56-16.56,25.87-39,25.91-62.43h0ZM88.33,154.55h-.02c-26.78,0-50.94-16.13-61.2-40.88-10.24-24.76-4.58-53.24,14.36-72.19,18.94-18.94,47.43-24.6,72.19-14.36,24.76,10.26,40.88,34.42,40.88,61.2-.02,36.58-29.66,66.22-66.24,66.24h.02Z"/>
  <path fill="#64e73c" d="M100.27,37.33c-5.2.87-11.82,4.58-9.98,10.54,2.33,5.92,9.42,9.56,15.89,15.44,7.5,6.17,12.2,15.13,17.92,22.7,6.89,9.36,16.23,5.56,17.8-6.77.71-6.92-1.22-13.68-4.51-19.96-6.63-12.94-21.85-24.51-36.92-21.99l-.19.03Z"/>
</svg>