<svg width="48" height="48" viewBox="0 0 48 48" fill="none" xmlns="http://www.w3.org/2000/svg">
<path d="M2.66667 14C2.66667 13.6318 2.96514 13.3333 3.33333 13.3333H8.66667C9.03486 13.3333 9.33333 13.6318 9.33333 14V26.6667C9.33333 27.0349 9.03486 27.3333 8.66667 27.3333H3.33333C2.96514 27.3333 2.66667 27.0349 2.66667 26.6667V14Z" fill="#E2EDFF"/>
<path d="M38.6667 10.6667C38.6667 10.2985 38.9651 10 39.3333 10H44.6667C45.0349 10 45.3333 10.2985 45.3333 10.6667V29.3333C45.3333 29.7015 45.0349 30 44.6667 30H39.3333C38.9651 30 38.6667 29.7015 38.6667 29.3333V10.6667Z" fill="#001C77"/>
<path d="M12 6C12 5.63181 12.2985 5.33333 12.6667 5.33333H18C18.3682 5.33333 18.6667 5.63181 18.6667 6V39.3333C18.6667 39.7015 18.3682 40 18 40H12.6667C12.2985 40 12 39.7015 12 39.3333V6Z" fill="#A0B7FF"/>
<path d="M20.6667 0.666667C20.6667 0.298477 20.9651 0 21.3333 0H26.6667C27.0349 0 27.3333 0.298477 27.3333 0.666667V34C27.3333 34.3682 27.0349 34.6667 26.6667 34.6667H21.3333C20.9651 34.6667 20.6667 34.3682 20.6667 34V0.666667Z" fill="#577FFF"/>
<path d="M30 14C30 13.6318 30.2985 13.3333 30.6667 13.3333H36C36.3682 13.3333 36.6667 13.6318 36.6667 14V47.3333C36.6667 47.7015 36.3682 48 36 48H30.6667C30.2985 48 30 47.7015 30 47.3333V14Z" fill="#0026A0"/>
</svg>
